<svg id="Layer_1" data-name="Layer 1" xmlns="http://www.w3.org/2000/svg" viewBox="0 0 180 40"><defs><style>.cls-1{fill:#28459c;}.cls-2{fill:#ebb025;}.cls-3{fill:#9ad7de;}.cls-4{fill:#536caf;}.cls-5{fill:#ee509c;}.cls-6{fill:#9b8abf;}.cls-7{fill:#927cb9;}.cls-8{fill:#f4b762;}.cls-9{fill:#e1a75e;}</style></defs><path class="cls-1" d="M66.59,30l-3.78-6.37h-.05V30h-4V12.35h4v9.21h.05l3.7-4.8h4.75l-5,5.82L71.11,30Z"/><path class="cls-1" d="M75.35,24.59a3,3,0,0,0,3.13,2.5,2.81,2.81,0,0,0,2.44-1.24H85a7.13,7.13,0,0,1-6.53,4.58,7.06,7.06,0,1,1,7-6.89,5.19,5.19,0,0,1-.1,1.05Zm6.12-2.67a3.16,3.16,0,0,0-6.07,0Z"/><path class="cls-1" d="M97.8,30V28.57h0a4.34,4.34,0,0,1-4,1.86c-4,0-6.69-3.08-6.69-7.08s2.72-7,6.62-7a5.2,5.2,0,0,1,3.93,1.58V12.35h4V30Zm0-6.68a3.38,3.38,0,0,0-6.76,0,3.25,3.25,0,0,0,3.34,3.41A3.33,3.33,0,0,0,97.82,23.32Z"/><path class="cls-1" d="M114.54,30V28.57h-.05a4.31,4.31,0,0,1-3.93,1.89c-3.94,0-6.69-3.08-6.69-7.09a6.8,6.8,0,0,1,6.69-7.06,4.54,4.54,0,0,1,3.93,1.86h.05V16.76h4V30Zm0-6.63a3.38,3.38,0,0,0-3.4-3.36,3.38,3.38,0,1,0,3.4,3.36Z"/><path class="cls-1" d="M121.45,15.36v-3h4v3Zm0,14.64V16.76h4V30Z"/><path class="cls-2" d="M128.32,30V16.76h3.75v1.41h.05a3.29,3.29,0,0,1,3.35-1.86v4c-2.39,0-3.16.91-3.16,2.41V30Z"/><path class="cls-2" d="M140.12,24.59a3,3,0,0,0,3.13,2.5,2.81,2.81,0,0,0,2.43-1.24h4.09a7,7,0,1,1-6.59-9.54,7,7,0,0,1,7,7.23,5.19,5.19,0,0,1-.09,1.05Zm6.11-2.67a3.16,3.16,0,0,0-6.06,0Z"/><path class="cls-2" d="M160.42,30l-3.78-6.37h0V30h-4V12.35h4v9.21h0l3.71-4.8h4.74l-5,5.82L165,30Z"/><path class="cls-2" d="M176,30V28.57H176c-.57,1.17-2.16,1.89-3.92,1.89-3.95,0-6.7-3.08-6.7-7.09a6.8,6.8,0,0,1,6.7-7.06A4.52,4.52,0,0,1,176,18.17H176V16.76h4V30Zm0-6.63A3.37,3.37,0,0,0,172.61,20,3.38,3.38,0,1,0,176,23.37Z"/><path class="cls-3" d="M11,22.54c1.6,3.77.91,9.73.43,11.91a4.56,4.56,0,0,0,3.49,5.44,5,5,0,0,0,1,.11,4.6,4.6,0,0,0,4.49-3.57c.28-1.27,2.2-10.6-1.16-17.92A28.76,28.76,0,0,1,11,22.54Z"/><path class="cls-4" d="M45.07,14.57A19,19,0,0,1,29,2.76,4.63,4.63,0,0,0,23,.37a4.54,4.54,0,0,0-2.42,6A28.14,28.14,0,0,0,44.88,23.68s4.59-.17,4.59-4.73A4.57,4.57,0,0,0,45.07,14.57Z"/><path class="cls-5" d="M38.42,22.52a28.17,28.17,0,0,1-8.29-4.06c-3.2,7.65-.91,16.93-.58,18.14A4.58,4.58,0,0,0,34,40a4.69,4.69,0,0,0,1.17-.15,4.56,4.56,0,0,0,3.29-5.56C37.92,32.23,37,26.55,38.42,22.52Z"/><path class="cls-6" d="M34.12,40a4.65,4.65,0,0,1-2.24-.58c-6.84-3.82-13.55-.09-13.61-.06a4.61,4.61,0,1,1-4.67-7.94c.45-.26,11.26-6.46,22.76-.05A4.61,4.61,0,0,1,34.12,40Z"/><path class="cls-7" d="M13.6,31.42a4.64,4.64,0,0,0-2.11,2.77c0,.09,0,.18-.05.26a3.69,3.69,0,0,0-.08.46h0c0,.12,0,.24,0,.36v.2c0,.06,0,.11,0,.17a2,2,0,0,0,0,.34v0a4.57,4.57,0,0,0,2.14,3.29l.06,0,.27.14.15.08.2.08.24.09.14,0,.33.09H15a3.07,3.07,0,0,0,.42.07h.07a3.17,3.17,0,0,0,.43,0H16l.32,0h.1l.29,0,.12,0,.28,0,.15,0,.23-.07.39-.15.05,0,.36-.19a4.52,4.52,0,0,0,2.18-2.94,37.84,37.84,0,0,0,.8-7.6A24.52,24.52,0,0,0,13.6,31.42Z"/><path class="cls-7" d="M38.45,34.28c-.07-.26-.14-.59-.22-1a4.61,4.61,0,0,0-1.87-1.95,22.54,22.54,0,0,0-7.9-2.67,35.88,35.88,0,0,0,1.09,7.9,4.47,4.47,0,0,0,1.68,2.47c.21.11.43.22.65.35A4.52,4.52,0,0,0,34,40h0a4.69,4.69,0,0,0,1.17-.15A4.56,4.56,0,0,0,38.45,34.28Z"/><path class="cls-8" d="M4.41,14.57A19.07,19.07,0,0,0,20.52,2.76,4.66,4.66,0,0,1,26.6.37a4.54,4.54,0,0,1,2.42,6A28.25,28.25,0,0,1,4.6,23.68S0,23.51,0,19A4.57,4.57,0,0,1,4.41,14.57Z"/><path class="cls-9" d="M29,6.36A4.53,4.53,0,0,0,28.9,2.5l0,0c-.06-.12-.13-.24-.2-.36v0c-.08-.12-.17-.23-.26-.35h0A4.65,4.65,0,0,0,26.6.37,4.57,4.57,0,0,0,24.92,0h-.27a4.56,4.56,0,0,0-4.09,6.35,30.75,30.75,0,0,0,4.22,7.05A30.09,30.09,0,0,0,29,6.36Z"/></svg>